<svg width="1440" height="62" viewBox="0 0 1440 62" fill="none" xmlns="http://www.w3.org/2000/svg">
<rect width="1440" height="62" fill="#819B57"/>
<path d="M138.44 23.72C139.627 23.72 140.6 23.84 141.36 24.08C142.12 24.32 142.68 24.7 143.04 25.22C143.413 25.7267 143.6 26.3867 143.6 27.2C143.6 27.7467 143.493 28.2467 143.28 28.7C143.08 29.1533 142.773 29.5333 142.36 29.84C141.947 30.1333 141.44 30.3333 140.84 30.44V30.5C141.533 30.62 142.113 30.82 142.58 31.1C143.06 31.38 143.42 31.76 143.66 32.24C143.9 32.7067 144.02 33.2733 144.02 33.94C144.02 34.86 143.807 35.6267 143.38 36.24C142.967 36.84 142.38 37.2867 141.62 37.58C140.873 37.86 140 38 139 38H134.5V23.72H138.44ZM138.72 30.02C140.04 30.02 140.987 29.7933 141.56 29.34C142.133 28.8867 142.42 28.2133 142.42 27.32C142.42 26.4 142.107 25.74 141.48 25.34C140.853 24.94 139.847 24.74 138.46 24.74H135.66V30.02H138.72ZM135.66 31.02V37H138.92C140.227 37 141.2 36.7333 141.84 36.2C142.48 35.6667 142.8 34.8933 142.8 33.88C142.8 33.2133 142.653 32.6733 142.36 32.26C142.067 31.8333 141.62 31.52 141.02 31.32C140.42 31.12 139.66 31.02 138.74 31.02H135.66ZM150.897 27.16C151.817 27.16 152.577 27.3733 153.177 27.8C153.791 28.2133 154.251 28.7867 154.557 29.52C154.877 30.2533 155.037 31.1 155.037 32.06V32.82H147.437C147.437 34.2467 147.764 35.3333 148.417 36.08C149.084 36.8267 150.024 37.2 151.237 37.2C151.904 37.2 152.484 37.1467 152.977 37.04C153.471 36.9333 154.011 36.7467 154.597 36.48V37.52C154.064 37.76 153.537 37.9333 153.017 38.04C152.497 38.1467 151.891 38.2 151.197 38.2C150.144 38.2 149.244 37.98 148.497 37.54C147.764 37.1 147.204 36.4733 146.817 35.66C146.444 34.8333 146.257 33.8733 146.257 32.78C146.257 31.6867 146.437 30.72 146.797 29.88C147.157 29.04 147.684 28.38 148.377 27.9C149.071 27.4067 149.911 27.16 150.897 27.16ZM150.897 28.12C149.911 28.12 149.117 28.4467 148.517 29.1C147.917 29.74 147.564 30.6667 147.457 31.88H153.857C153.857 31.1333 153.751 30.48 153.537 29.92C153.324 29.36 152.997 28.92 152.557 28.6C152.131 28.28 151.577 28.12 150.897 28.12ZM165.412 38H164.272V28.34H160.672C160.539 30.02 160.386 31.4733 160.212 32.7C160.039 33.9267 159.812 34.94 159.532 35.74C159.266 36.54 158.926 37.1333 158.512 37.52C158.112 37.9067 157.626 38.1 157.052 38.1C156.879 38.1 156.726 38.0933 156.592 38.08C156.459 38.0667 156.346 38.0467 156.252 38.02V37.1C156.332 37.1267 156.419 37.1467 156.512 37.16C156.606 37.1733 156.726 37.18 156.872 37.18C157.192 37.18 157.479 37.0533 157.732 36.8C157.999 36.5467 158.232 36.1667 158.432 35.66C158.632 35.1533 158.806 34.5133 158.952 33.74C159.112 32.9533 159.246 32.0333 159.352 30.98C159.472 29.9133 159.579 28.7067 159.672 27.36H165.412V38ZM170.008 34.78C170.008 34.9133 170.008 35.0667 170.008 35.24C170.008 35.4133 170.001 35.5933 169.988 35.78C169.988 35.9533 169.981 36.1267 169.968 36.3C169.955 36.46 169.948 36.6133 169.948 36.76L176.168 27.36H177.568V38H176.488V30.58C176.488 30.38 176.488 30.16 176.488 29.92C176.488 29.68 176.495 29.44 176.508 29.2C176.521 28.96 176.528 28.7533 176.528 28.58L170.308 38H168.928V27.36H170.008V34.78ZM186.976 27.36H188.276L183.516 32.52L188.576 38H187.196L182.236 32.62V38H181.096V27.36H182.236V32.54L186.976 27.36ZM191.629 34.78C191.629 34.9133 191.629 35.0667 191.629 35.24C191.629 35.4133 191.622 35.5933 191.609 35.78C191.609 35.9533 191.602 36.1267 191.589 36.3C191.576 36.46 191.569 36.6133 191.569 36.76L197.789 27.36H199.189V38H198.109V30.58C198.109 30.38 198.109 30.16 198.109 29.92C198.109 29.68 198.116 29.44 198.129 29.2C198.142 28.96 198.149 28.7533 198.149 28.58L191.929 38H190.549V27.36H191.629V34.78ZM210.397 23.08C210.357 23.7067 210.204 24.2333 209.937 24.66C209.684 25.0733 209.317 25.38 208.837 25.58C208.357 25.78 207.764 25.88 207.057 25.88C206.35 25.88 205.757 25.78 205.277 25.58C204.81 25.38 204.457 25.0733 204.217 24.66C203.99 24.2467 203.85 23.72 203.797 23.08H204.877C204.944 23.8 205.144 24.3067 205.477 24.6C205.824 24.8933 206.357 25.04 207.077 25.04C207.757 25.04 208.284 24.8933 208.657 24.6C209.03 24.3067 209.244 23.8 209.297 23.08H210.397ZM203.797 34.78C203.797 34.9133 203.797 35.0667 203.797 35.24C203.797 35.4133 203.79 35.5933 203.777 35.78C203.777 35.9533 203.77 36.1267 203.757 36.3C203.744 36.46 203.737 36.6133 203.737 36.76L209.957 27.36H211.357V38H210.277V30.58C210.277 30.38 210.277 30.16 210.277 29.92C210.277 29.68 210.284 29.44 210.297 29.2C210.31 28.96 210.317 28.7533 210.317 28.58L204.097 38H202.717V27.36H203.797V34.78ZM228.953 27.36V38H227.813V28.36H221.513V38H220.373V27.36H228.953ZM241.383 32.68C241.383 33.5067 241.276 34.26 241.063 34.94C240.863 35.6067 240.556 36.1867 240.143 36.68C239.743 37.16 239.243 37.5333 238.643 37.8C238.043 38.0667 237.356 38.2 236.583 38.2C235.849 38.2 235.189 38.0733 234.603 37.82C234.029 37.5533 233.536 37.18 233.123 36.7C232.709 36.2067 232.396 35.62 232.183 34.94C231.969 34.26 231.863 33.5067 231.863 32.68C231.863 31.52 232.049 30.5333 232.423 29.72C232.809 28.8933 233.363 28.26 234.083 27.82C234.816 27.38 235.683 27.16 236.683 27.16C237.696 27.16 238.549 27.3933 239.243 27.86C239.949 28.3133 240.483 28.9533 240.843 29.78C241.203 30.6067 241.383 31.5733 241.383 32.68ZM233.043 32.68C233.043 33.5867 233.169 34.3867 233.423 35.08C233.676 35.76 234.069 36.2867 234.603 36.66C235.136 37.0333 235.803 37.22 236.603 37.22C237.429 37.22 238.109 37.0333 238.643 36.66C239.176 36.2733 239.569 35.74 239.823 35.06C240.076 34.3667 240.203 33.5733 240.203 32.68C240.203 31.7867 240.083 31 239.843 30.32C239.603 29.64 239.223 29.1067 238.703 28.72C238.183 28.3333 237.503 28.14 236.663 28.14C235.449 28.14 234.543 28.54 233.943 29.34C233.343 30.14 233.043 31.2533 233.043 32.68ZM252.86 27.36V38H251.72V28.36H245.42V38H244.28V27.36H252.86ZM257.469 34.78C257.469 34.9133 257.469 35.0667 257.469 35.24C257.469 35.4133 257.462 35.5933 257.449 35.78C257.449 35.9533 257.442 36.1267 257.429 36.3C257.416 36.46 257.409 36.6133 257.409 36.76L263.629 27.36H265.029V38H263.949V30.58C263.949 30.38 263.949 30.16 263.949 29.92C263.949 29.68 263.956 29.44 263.969 29.2C263.982 28.96 263.989 28.7533 263.989 28.58L257.769 38H256.389V27.36H257.469V34.78ZM275.437 28.34H271.857V38H270.737V28.34H267.177V27.36H275.437V28.34ZM284.228 27.36V31.98H290.748V27.36H291.888V38H290.748V32.96H284.228V38H283.088V27.36H284.228ZM299.172 27.18C300.372 27.18 301.266 27.4733 301.852 28.06C302.439 28.6467 302.732 29.58 302.732 30.86V38H301.872L301.672 36.2H301.612C301.359 36.6 301.066 36.9533 300.732 37.26C300.412 37.5533 300.019 37.7867 299.552 37.96C299.099 38.12 298.539 38.2 297.872 38.2C297.206 38.2 296.626 38.0867 296.132 37.86C295.639 37.62 295.259 37.28 294.992 36.84C294.726 36.4 294.592 35.86 294.592 35.22C294.592 34.1667 295.026 33.3667 295.892 32.82C296.759 32.26 298.019 31.94 299.672 31.86L301.612 31.78V31.02C301.612 29.9667 301.399 29.2267 300.972 28.8C300.559 28.36 299.939 28.14 299.112 28.14C298.566 28.14 298.039 28.2133 297.532 28.36C297.039 28.4933 296.539 28.6867 296.032 28.94L295.672 28.04C296.166 27.7867 296.712 27.58 297.312 27.42C297.912 27.26 298.532 27.18 299.172 27.18ZM299.792 32.7C298.446 32.7667 297.439 33.0067 296.772 33.42C296.106 33.82 295.772 34.4267 295.772 35.24C295.772 35.8933 295.979 36.3933 296.392 36.74C296.806 37.0733 297.366 37.24 298.072 37.24C299.206 37.24 300.072 36.9267 300.672 36.3C301.286 35.6733 301.599 34.7933 301.612 33.66V32.62L299.792 32.7ZM316.383 27.16C317.743 27.16 318.803 27.62 319.563 28.54C320.337 29.46 320.723 30.82 320.723 32.62C320.723 33.82 320.543 34.84 320.183 35.68C319.823 36.5067 319.31 37.1333 318.643 37.56C317.99 37.9867 317.203 38.2 316.283 38.2C315.657 38.2 315.11 38.1067 314.643 37.92C314.177 37.7333 313.79 37.4867 313.483 37.18C313.177 36.8733 312.937 36.5333 312.763 36.16H312.683C312.71 36.4933 312.73 36.86 312.743 37.26C312.757 37.6467 312.763 38.0067 312.763 38.34V42.72H311.623V27.36H312.563L312.703 29.36H312.763C312.937 28.9733 313.183 28.6133 313.503 28.28C313.823 27.9467 314.217 27.68 314.683 27.48C315.163 27.2667 315.73 27.16 316.383 27.16ZM316.223 28.14C315.437 28.14 314.79 28.3067 314.283 28.64C313.777 28.9733 313.397 29.4667 313.143 30.12C312.89 30.76 312.763 31.5533 312.763 32.5V32.7C312.763 33.7 312.883 34.54 313.123 35.22C313.377 35.8867 313.75 36.3867 314.243 36.72C314.75 37.0533 315.383 37.22 316.143 37.22C316.89 37.22 317.51 37.04 318.003 36.68C318.51 36.3067 318.89 35.78 319.143 35.1C319.41 34.4067 319.543 33.58 319.543 32.62C319.543 31.1667 319.27 30.06 318.723 29.3C318.177 28.5267 317.343 28.14 316.223 28.14ZM324.676 34.78C324.676 34.9133 324.676 35.0667 324.676 35.24C324.676 35.4133 324.669 35.5933 324.656 35.78C324.656 35.9533 324.649 36.1267 324.636 36.3C324.623 36.46 324.616 36.6133 324.616 36.76L330.836 27.36H332.236V38H331.156V30.58C331.156 30.38 331.156 30.16 331.156 29.92C331.156 29.68 331.163 29.44 331.176 29.2C331.189 28.96 331.196 28.7533 331.196 28.58L324.976 38H323.596V27.36H324.676V34.78ZM336.904 27.36V31.98H343.424V27.36H344.564V38H343.424V32.96H336.904V38H335.764V27.36H336.904ZM353.968 27.36H355.268L350.508 32.52L355.568 38H354.188L349.228 32.62V38H348.088V27.36H349.228V32.54L353.968 27.36ZM355.781 27.36H357.001L359.521 33.98C359.668 34.3667 359.801 34.7267 359.921 35.06C360.041 35.3933 360.148 35.7067 360.241 36C360.335 36.28 360.415 36.54 360.481 36.78H360.541C360.635 36.4733 360.761 36.08 360.921 35.6C361.081 35.1067 361.268 34.5733 361.481 34L363.961 27.36H365.181L360.381 39.9C360.141 40.5133 359.875 41.04 359.581 41.48C359.288 41.92 358.941 42.2533 358.541 42.48C358.141 42.72 357.661 42.84 357.101 42.84C356.848 42.84 356.615 42.82 356.401 42.78C356.201 42.7533 356.008 42.7133 355.821 42.66V41.7C355.995 41.74 356.168 41.7733 356.341 41.8C356.528 41.84 356.735 41.86 356.961 41.86C357.335 41.86 357.661 41.78 357.941 41.62C358.221 41.4733 358.468 41.24 358.681 40.92C358.895 40.6133 359.088 40.2267 359.261 39.76L359.961 37.96L355.781 27.36Z" fill="#FAF4EA"/>
<path d="M536.62 23.72V36.96H538.14V41.62H537.02V38H526.76V41.62H525.64V36.96H526.68C527.173 36.1067 527.633 35.14 528.06 34.06C528.5 32.98 528.88 31.8467 529.2 30.66C529.533 29.4733 529.8 28.2933 530 27.12C530.213 25.9333 530.347 24.8 530.4 23.72H536.62ZM531.44 24.78C531.387 25.7 531.253 26.7 531.04 27.78C530.84 28.86 530.58 29.9533 530.26 31.06C529.94 32.1667 529.58 33.2267 529.18 34.24C528.793 35.2533 528.373 36.16 527.92 36.96H535.48V24.78H531.44ZM549.363 32.68C549.363 33.5067 549.256 34.26 549.043 34.94C548.843 35.6067 548.536 36.1867 548.123 36.68C547.723 37.16 547.223 37.5333 546.623 37.8C546.023 38.0667 545.336 38.2 544.563 38.2C543.83 38.2 543.17 38.0733 542.583 37.82C542.01 37.5533 541.516 37.18 541.103 36.7C540.69 36.2067 540.376 35.62 540.163 34.94C539.95 34.26 539.843 33.5067 539.843 32.68C539.843 31.52 540.03 30.5333 540.403 29.72C540.79 28.8933 541.343 28.26 542.063 27.82C542.796 27.38 543.663 27.16 544.663 27.16C545.676 27.16 546.53 27.3933 547.223 27.86C547.93 28.3133 548.463 28.9533 548.823 29.78C549.183 30.6067 549.363 31.5733 549.363 32.68ZM541.023 32.68C541.023 33.5867 541.15 34.3867 541.403 35.08C541.656 35.76 542.05 36.2867 542.583 36.66C543.116 37.0333 543.783 37.22 544.583 37.22C545.41 37.22 546.09 37.0333 546.623 36.66C547.156 36.2733 547.55 35.74 547.803 35.06C548.056 34.3667 548.183 33.5733 548.183 32.68C548.183 31.7867 548.063 31 547.823 30.32C547.583 29.64 547.203 29.1067 546.683 28.72C546.163 28.3333 545.483 28.14 544.643 28.14C543.43 28.14 542.523 28.54 541.923 29.34C541.323 30.14 541.023 31.2533 541.023 32.68ZM556.52 38.2C555.48 38.2 554.593 37.9867 553.86 37.56C553.14 37.12 552.587 36.4933 552.2 35.68C551.827 34.8667 551.64 33.8867 551.64 32.74C551.64 31.54 551.853 30.5267 552.28 29.7C552.72 28.8733 553.32 28.2467 554.08 27.82C554.84 27.38 555.733 27.16 556.76 27.16C557.267 27.16 557.74 27.2133 558.18 27.32C558.633 27.4133 559.033 27.54 559.38 27.7L559.08 28.66C558.72 28.5133 558.333 28.4 557.92 28.32C557.507 28.2267 557.113 28.18 556.74 28.18C555.887 28.18 555.167 28.3667 554.58 28.74C554.007 29.1 553.567 29.62 553.26 30.3C552.967 30.98 552.82 31.7933 552.82 32.74C552.82 33.62 552.947 34.4 553.2 35.08C553.467 35.7467 553.873 36.2667 554.42 36.64C554.967 37.0133 555.667 37.2 556.52 37.2C557.04 37.2 557.527 37.1467 557.98 37.04C558.447 36.9333 558.873 36.7933 559.26 36.62V37.66C558.913 37.8067 558.513 37.9333 558.06 38.04C557.607 38.1467 557.093 38.2 556.52 38.2ZM568.652 28.34H565.072V38H563.952V28.34H560.392V27.36H568.652V28.34ZM569.055 27.36H570.275L572.795 33.98C572.941 34.3667 573.075 34.7267 573.195 35.06C573.315 35.3933 573.421 35.7067 573.515 36C573.608 36.28 573.688 36.54 573.755 36.78H573.815C573.908 36.4733 574.035 36.08 574.195 35.6C574.355 35.1067 574.541 34.5733 574.755 34L577.235 27.36H578.455L573.655 39.9C573.415 40.5133 573.148 41.04 572.855 41.48C572.561 41.92 572.215 42.2533 571.815 42.48C571.415 42.72 570.935 42.84 570.375 42.84C570.121 42.84 569.888 42.82 569.675 42.78C569.475 42.7533 569.281 42.7133 569.095 42.66V41.7C569.268 41.74 569.441 41.7733 569.615 41.8C569.801 41.84 570.008 41.86 570.235 41.86C570.608 41.86 570.935 41.78 571.215 41.62C571.495 41.4733 571.741 41.24 571.955 40.92C572.168 40.6133 572.361 40.2267 572.535 39.76L573.235 37.96L569.055 27.36ZM588.77 27.36V38H587.63V28.36H581.33V38H580.19V27.36H588.77ZM593.439 27.36V31.98H599.959V27.36H601.099V38H599.959V32.96H593.439V38H592.299V27.36H593.439ZM605.743 27.36V38H604.623V27.36H605.743ZM605.183 23.42C605.437 23.42 605.63 23.5 605.763 23.66C605.897 23.8067 605.963 24.0133 605.963 24.28C605.963 24.56 605.897 24.78 605.763 24.94C605.63 25.0867 605.437 25.16 605.183 25.16C604.943 25.16 604.757 25.0867 604.623 24.94C604.49 24.78 604.423 24.56 604.423 24.28C604.423 24.0133 604.49 23.8067 604.623 23.66C604.757 23.5 604.943 23.42 605.183 23.42ZM617.26 27.16C618.007 27.16 618.647 27.2733 619.18 27.5C619.713 27.7133 620.12 28.0267 620.4 28.44C620.68 28.84 620.82 29.3333 620.82 29.92C620.82 30.5333 620.653 31.04 620.32 31.44C619.987 31.84 619.52 32.1267 618.92 32.3V32.34C619.4 32.46 619.807 32.64 620.14 32.88C620.487 33.12 620.747 33.42 620.92 33.78C621.107 34.1267 621.2 34.54 621.2 35.02C621.2 35.66 621.033 36.22 620.7 36.7C620.38 37.18 619.907 37.5533 619.28 37.82C618.667 38.0733 617.92 38.2 617.04 38.2C616.56 38.2 616.107 38.1667 615.68 38.1C615.253 38.0467 614.867 37.9667 614.52 37.86C614.187 37.7533 613.893 37.6333 613.64 37.5V36.42C614.12 36.66 614.64 36.86 615.2 37.02C615.76 37.1667 616.367 37.24 617.02 37.24C617.607 37.24 618.127 37.16 618.58 37C619.047 36.8267 619.407 36.5733 619.66 36.24C619.927 35.9067 620.06 35.48 620.06 34.96C620.06 34.4667 619.94 34.0667 619.7 33.76C619.46 33.4533 619.107 33.2333 618.64 33.1C618.187 32.9533 617.613 32.88 616.92 32.88H615.5V31.92H616.78C617.673 31.92 618.387 31.7667 618.92 31.46C619.453 31.1533 619.72 30.66 619.72 29.98C619.72 29.38 619.5 28.9267 619.06 28.62C618.633 28.3 618.013 28.14 617.2 28.14C616.627 28.14 616.113 28.2067 615.66 28.34C615.207 28.46 614.733 28.6333 614.24 28.86L613.84 27.92C614.347 27.68 614.873 27.4933 615.42 27.36C615.98 27.2267 616.593 27.16 617.26 27.16ZM627.7 27.18C628.9 27.18 629.793 27.4733 630.38 28.06C630.966 28.6467 631.26 29.58 631.26 30.86V38H630.4L630.2 36.2H630.14C629.886 36.6 629.593 36.9533 629.26 37.26C628.94 37.5533 628.546 37.7867 628.08 37.96C627.626 38.12 627.066 38.2 626.4 38.2C625.733 38.2 625.153 38.0867 624.66 37.86C624.166 37.62 623.786 37.28 623.52 36.84C623.253 36.4 623.12 35.86 623.12 35.22C623.12 34.1667 623.553 33.3667 624.42 32.82C625.286 32.26 626.546 31.94 628.2 31.86L630.14 31.78V31.02C630.14 29.9667 629.926 29.2267 629.5 28.8C629.086 28.36 628.466 28.14 627.64 28.14C627.093 28.14 626.566 28.2133 626.06 28.36C625.566 28.4933 625.066 28.6867 624.56 28.94L624.2 28.04C624.693 27.7867 625.24 27.58 625.84 27.42C626.44 27.26 627.06 27.18 627.7 27.18ZM628.32 32.7C626.973 32.7667 625.966 33.0067 625.3 33.42C624.633 33.82 624.3 34.4267 624.3 35.24C624.3 35.8933 624.506 36.3933 624.92 36.74C625.333 37.0733 625.893 37.24 626.6 37.24C627.733 37.24 628.6 36.9267 629.2 36.3C629.813 35.6733 630.126 34.7933 630.14 33.66V32.62L628.32 32.7ZM639.571 31.62C639.571 30.2333 639.684 29.0467 639.911 28.06C640.137 27.0733 640.484 26.2667 640.951 25.64C641.431 25 642.024 24.5267 642.731 24.22C643.451 23.82 644.284 23.5133 645.231 23.3C646.191 23.0733 647.257 22.8867 648.431 22.74L648.611 23.74C648.011 23.8067 647.437 23.8867 646.891 23.98C646.344 24.0733 645.831 24.18 645.351 24.3C644.884 24.4067 644.457 24.5267 644.071 24.66C643.697 24.7933 643.371 24.9467 643.091 25.12C642.744 25.2933 642.431 25.5267 642.151 25.82C641.884 26.1133 641.651 26.4733 641.451 26.9C641.264 27.3267 641.111 27.82 640.991 28.38C640.871 28.94 640.797 29.5667 640.771 30.26H640.851C641.091 29.86 641.397 29.5 641.771 29.18C642.144 28.8467 642.577 28.5867 643.071 28.4C643.577 28.2 644.131 28.1 644.731 28.1C645.624 28.1 646.377 28.2933 646.991 28.68C647.604 29.0533 648.064 29.6 648.371 30.32C648.691 31.0267 648.851 31.8933 648.851 32.92C648.851 34 648.671 34.94 648.311 35.74C647.964 36.5267 647.444 37.1333 646.751 37.56C646.071 37.9867 645.231 38.2 644.231 38.2C643.431 38.2 642.737 38.04 642.151 37.72C641.564 37.3867 641.077 36.9267 640.691 36.34C640.304 35.74 640.017 35.04 639.831 34.24C639.657 33.44 639.571 32.5667 639.571 31.62ZM644.311 37.22C645.071 37.22 645.691 37.06 646.171 36.74C646.664 36.4067 647.031 35.9267 647.271 35.3C647.524 34.66 647.651 33.8933 647.651 33C647.651 31.72 647.391 30.7467 646.871 30.08C646.364 29.4133 645.597 29.08 644.571 29.08C643.971 29.08 643.424 29.1933 642.931 29.42C642.451 29.6467 642.024 29.9533 641.651 30.34C641.277 30.7133 640.971 31.12 640.731 31.56C640.731 32.28 640.784 32.98 640.891 33.66C640.997 34.3267 641.177 34.9333 641.431 35.48C641.697 36.0133 642.064 36.44 642.531 36.76C643.011 37.0667 643.604 37.22 644.311 37.22ZM664.933 32.68C664.933 33.76 664.766 34.72 664.433 35.56C664.099 36.3867 663.606 37.0333 662.953 37.5C662.299 37.9667 661.479 38.2 660.493 38.2C659.573 38.2 658.793 37.9867 658.153 37.56C657.526 37.1333 657.039 36.5267 656.693 35.74C656.346 34.9533 656.153 34.0267 656.113 32.96H652.853V38H651.713V27.36H652.853V31.98H656.133C656.199 31.0467 656.406 30.22 656.753 29.5C657.099 28.78 657.586 28.2133 658.213 27.8C658.853 27.3733 659.633 27.16 660.553 27.16C661.526 27.16 662.333 27.4 662.973 27.88C663.626 28.3467 664.113 28.9933 664.433 29.82C664.766 30.6467 664.933 31.6 664.933 32.68ZM657.293 32.68C657.293 33.56 657.399 34.3467 657.613 35.04C657.839 35.72 658.186 36.2533 658.653 36.64C659.133 37.0267 659.753 37.22 660.513 37.22C661.273 37.22 661.893 37.0333 662.373 36.66C662.853 36.2733 663.199 35.74 663.413 35.06C663.639 34.38 663.753 33.5867 663.753 32.68C663.753 31.7733 663.639 30.98 663.413 30.3C663.199 29.62 662.853 29.0933 662.373 28.72C661.906 28.3333 661.293 28.14 660.533 28.14C659.773 28.14 659.153 28.3333 658.673 28.72C658.206 29.0933 657.859 29.62 657.633 30.3C657.406 30.98 657.293 31.7733 657.293 32.68ZM675.206 27.36V37.02H676.666V41.62H675.546V38H667.566V41.62H666.466V37.02H667.206C667.806 36.18 668.306 35.2533 668.706 34.24C669.106 33.2267 669.413 32.14 669.626 30.98C669.84 29.82 669.953 28.6133 669.966 27.36H675.206ZM671.006 28.3C670.953 29.42 670.82 30.5067 670.606 31.56C670.393 32.6 670.106 33.58 669.746 34.5C669.386 35.42 668.946 36.26 668.426 37.02H674.106V28.3H671.006ZM690.261 27.36L685.681 32.56L690.621 38H689.281L684.461 32.62V38H683.381V32.62L678.561 38H677.221L682.161 32.56L677.561 27.36H678.861L683.381 32.54V27.36H684.461V32.54L688.981 27.36H690.261ZM696.143 27.16C697.063 27.16 697.823 27.3733 698.423 27.8C699.037 28.2133 699.497 28.7867 699.803 29.52C700.123 30.2533 700.283 31.1 700.283 32.06V32.82H692.683C692.683 34.2467 693.01 35.3333 693.663 36.08C694.33 36.8267 695.27 37.2 696.483 37.2C697.15 37.2 697.73 37.1467 698.223 37.04C698.717 36.9333 699.257 36.7467 699.843 36.48V37.52C699.31 37.76 698.783 37.9333 698.263 38.04C697.743 38.1467 697.137 38.2 696.443 38.2C695.39 38.2 694.49 37.98 693.743 37.54C693.01 37.1 692.45 36.4733 692.063 35.66C691.69 34.8333 691.503 33.8733 691.503 32.78C691.503 31.6867 691.683 30.72 692.043 29.88C692.403 29.04 692.93 28.38 693.623 27.9C694.317 27.4067 695.157 27.16 696.143 27.16ZM696.143 28.12C695.157 28.12 694.363 28.4467 693.763 29.1C693.163 29.74 692.81 30.6667 692.703 31.88H699.103C699.103 31.1333 698.997 30.48 698.783 29.92C698.57 29.36 698.243 28.92 697.803 28.6C697.377 28.28 696.823 28.12 696.143 28.12ZM710.038 28.34H706.458V38H705.338V28.34H701.778V27.36H710.038V28.34ZM720.906 32.68C720.906 33.5067 720.799 34.26 720.586 34.94C720.386 35.6067 720.079 36.1867 719.666 36.68C719.266 37.16 718.766 37.5333 718.166 37.8C717.566 38.0667 716.879 38.2 716.106 38.2C715.373 38.2 714.713 38.0733 714.126 37.82C713.553 37.5533 713.059 37.18 712.646 36.7C712.233 36.2067 711.919 35.62 711.706 34.94C711.493 34.26 711.386 33.5067 711.386 32.68C711.386 31.52 711.573 30.5333 711.946 29.72C712.333 28.8933 712.886 28.26 713.606 27.82C714.339 27.38 715.206 27.16 716.206 27.16C717.219 27.16 718.073 27.3933 718.766 27.86C719.473 28.3133 720.006 28.9533 720.366 29.78C720.726 30.6067 720.906 31.5733 720.906 32.68ZM712.566 32.68C712.566 33.5867 712.693 34.3867 712.946 35.08C713.199 35.76 713.593 36.2867 714.126 36.66C714.659 37.0333 715.326 37.22 716.126 37.22C716.953 37.22 717.633 37.0333 718.166 36.66C718.699 36.2733 719.093 35.74 719.346 35.06C719.599 34.3667 719.726 33.5733 719.726 32.68C719.726 31.7867 719.606 31 719.366 30.32C719.126 29.64 718.746 29.1067 718.226 28.72C717.706 28.3333 717.026 28.14 716.186 28.14C714.973 28.14 714.066 28.54 713.466 29.34C712.866 30.14 712.566 31.2533 712.566 32.68ZM734.363 27.36V38H733.303V30.52C733.303 30.24 733.31 29.9667 733.323 29.7C733.336 29.42 733.35 29.1333 733.363 28.84H733.323L729.543 38H728.563L724.823 28.82H724.763C724.79 29.1133 724.803 29.4 724.803 29.68C724.803 29.96 724.803 30.26 724.803 30.58V38H723.763V27.36H725.303L729.043 36.6L732.823 27.36H734.363ZM748.68 27.2C749.747 27.2667 750.66 27.5333 751.42 28C752.18 28.4533 752.767 29.0733 753.18 29.86C753.594 30.6467 753.8 31.5867 753.8 32.68C753.8 33.72 753.594 34.64 753.18 35.44C752.78 36.2267 752.2 36.86 751.44 37.34C750.68 37.8067 749.76 38.08 748.68 38.16V42.8H747.56V38.16C746.507 38.0933 745.594 37.8333 744.82 37.38C744.047 36.9267 743.454 36.3 743.04 35.5C742.64 34.7 742.44 33.76 742.44 32.68C742.44 31.5867 742.64 30.6467 743.04 29.86C743.454 29.0733 744.04 28.4533 744.8 28C745.574 27.5333 746.5 27.2667 747.58 27.2V22.8H748.68V27.2ZM747.58 28.18C746.7 28.2333 745.967 28.4467 745.38 28.82C744.794 29.1933 744.354 29.7067 744.06 30.36C743.767 31 743.62 31.7733 743.62 32.68C743.62 33.5867 743.767 34.3667 744.06 35.02C744.354 35.6733 744.794 36.1867 745.38 36.56C745.98 36.9333 746.714 37.1467 747.58 37.2V28.18ZM748.68 37.2C749.547 37.1333 750.267 36.9067 750.84 36.52C751.427 36.1333 751.867 35.6133 752.16 34.96C752.467 34.3067 752.62 33.5467 752.62 32.68C752.62 31.7733 752.474 31 752.18 30.36C751.887 29.7067 751.447 29.2 750.86 28.84C750.274 28.4667 749.547 28.2467 748.68 28.18V37.2ZM765.594 32.68C765.594 33.5067 765.487 34.26 765.274 34.94C765.074 35.6067 764.767 36.1867 764.354 36.68C763.954 37.16 763.454 37.5333 762.854 37.8C762.254 38.0667 761.567 38.2 760.794 38.2C760.06 38.2 759.4 38.0733 758.814 37.82C758.24 37.5533 757.747 37.18 757.334 36.7C756.92 36.2067 756.607 35.62 756.394 34.94C756.18 34.26 756.074 33.5067 756.074 32.68C756.074 31.52 756.26 30.5333 756.634 29.72C757.02 28.8933 757.574 28.26 758.294 27.82C759.027 27.38 759.894 27.16 760.894 27.16C761.907 27.16 762.76 27.3933 763.454 27.86C764.16 28.3133 764.694 28.9533 765.054 29.78C765.414 30.6067 765.594 31.5733 765.594 32.68ZM757.254 32.68C757.254 33.5867 757.38 34.3867 757.634 35.08C757.887 35.76 758.28 36.2867 758.814 36.66C759.347 37.0333 760.014 37.22 760.814 37.22C761.64 37.22 762.32 37.0333 762.854 36.66C763.387 36.2733 763.78 35.74 764.034 35.06C764.287 34.3667 764.414 33.5733 764.414 32.68C764.414 31.7867 764.294 31 764.054 30.32C763.814 29.64 763.434 29.1067 762.914 28.72C762.394 28.3333 761.714 28.14 760.874 28.14C759.66 28.14 758.754 28.54 758.154 29.34C757.554 30.14 757.254 31.2533 757.254 32.68ZM773.25 27.16C774.61 27.16 775.67 27.62 776.43 28.54C777.204 29.46 777.59 30.82 777.59 32.62C777.59 33.82 777.41 34.84 777.05 35.68C776.69 36.5067 776.177 37.1333 775.51 37.56C774.857 37.9867 774.07 38.2 773.15 38.2C772.524 38.2 771.977 38.1067 771.51 37.92C771.044 37.7333 770.657 37.4867 770.35 37.18C770.044 36.8733 769.804 36.5333 769.63 36.16H769.55C769.577 36.4933 769.597 36.86 769.61 37.26C769.624 37.6467 769.63 38.0067 769.63 38.34V42.72H768.49V27.36H769.43L769.57 29.36H769.63C769.804 28.9733 770.05 28.6133 770.37 28.28C770.69 27.9467 771.084 27.68 771.55 27.48C772.03 27.2667 772.597 27.16 773.25 27.16ZM773.09 28.14C772.304 28.14 771.657 28.3067 771.15 28.64C770.644 28.9733 770.264 29.4667 770.01 30.12C769.757 30.76 769.63 31.5533 769.63 32.5V32.7C769.63 33.7 769.75 34.54 769.99 35.22C770.244 35.8867 770.617 36.3867 771.11 36.72C771.617 37.0533 772.25 37.22 773.01 37.22C773.757 37.22 774.377 37.04 774.87 36.68C775.377 36.3067 775.757 35.78 776.01 35.1C776.277 34.4067 776.41 33.58 776.41 32.62C776.41 31.1667 776.137 30.06 775.59 29.3C775.044 28.5267 774.21 28.14 773.09 28.14ZM791.023 27.36V38H789.963V30.52C789.963 30.24 789.97 29.9667 789.983 29.7C789.996 29.42 790.01 29.1333 790.023 28.84H789.983L786.203 38H785.223L781.483 28.82H781.423C781.45 29.1133 781.463 29.4 781.463 29.68C781.463 29.96 781.463 30.26 781.463 30.58V38H780.423V27.36H781.963L785.703 36.6L789.483 27.36H791.023ZM798.012 27.18C799.212 27.18 800.106 27.4733 800.692 28.06C801.279 28.6467 801.572 29.58 801.572 30.86V38H800.712L800.512 36.2H800.452C800.199 36.6 799.906 36.9533 799.572 37.26C799.252 37.5533 798.859 37.7867 798.392 37.96C797.939 38.12 797.379 38.2 796.712 38.2C796.046 38.2 795.466 38.0867 794.972 37.86C794.479 37.62 794.099 37.28 793.832 36.84C793.566 36.4 793.432 35.86 793.432 35.22C793.432 34.1667 793.866 33.3667 794.732 32.82C795.599 32.26 796.859 31.94 798.512 31.86L800.452 31.78V31.02C800.452 29.9667 800.239 29.2267 799.812 28.8C799.399 28.36 798.779 28.14 797.952 28.14C797.406 28.14 796.879 28.2133 796.372 28.36C795.879 28.4933 795.379 28.6867 794.872 28.94L794.512 28.04C795.006 27.7867 795.552 27.58 796.152 27.42C796.752 27.26 797.372 27.18 798.012 27.18ZM798.632 32.7C797.286 32.7667 796.279 33.0067 795.612 33.42C794.946 33.82 794.612 34.4267 794.612 35.24C794.612 35.8933 794.819 36.3933 795.232 36.74C795.646 37.0733 796.206 37.24 796.912 37.24C798.046 37.24 798.912 36.9267 799.512 36.3C800.126 35.6733 800.439 34.7933 800.452 33.66V32.62L798.632 32.7ZM811.855 28.34H808.275V38H807.155V28.34H803.595V27.36H811.855V28.34ZM815.098 34.78C815.098 34.9133 815.098 35.0667 815.098 35.24C815.098 35.4133 815.091 35.5933 815.078 35.78C815.078 35.9533 815.071 36.1267 815.058 36.3C815.044 36.46 815.038 36.6133 815.038 36.76L821.258 27.36H822.658V38H821.578V30.58C821.578 30.38 821.578 30.16 821.578 29.92C821.578 29.68 821.584 29.44 821.598 29.2C821.611 28.96 821.618 28.7533 821.618 28.58L815.398 38H814.018V27.36H815.098V34.78Z" fill="#FAF4EA"/>
<path d="M995.62 23.72V36.96H997.14V41.62H996.02V38H985.76V41.62H984.64V36.96H985.68C986.173 36.1067 986.633 35.14 987.06 34.06C987.5 32.98 987.88 31.8467 988.2 30.66C988.533 29.4733 988.8 28.2933 989 27.12C989.213 25.9333 989.347 24.8 989.4 23.72H995.62ZM990.44 24.78C990.387 25.7 990.253 26.7 990.04 27.78C989.84 28.86 989.58 29.9533 989.26 31.06C988.94 32.1667 988.58 33.2267 988.18 34.24C987.793 35.2533 987.373 36.16 986.92 36.96H994.48V24.78H990.44ZM1008.36 32.68C1008.36 33.5067 1008.26 34.26 1008.04 34.94C1007.84 35.6067 1007.54 36.1867 1007.12 36.68C1006.72 37.16 1006.22 37.5333 1005.62 37.8C1005.02 38.0667 1004.34 38.2 1003.56 38.2C1002.83 38.2 1002.17 38.0733 1001.58 37.82C1001.01 37.5533 1000.52 37.18 1000.1 36.7C999.69 36.2067 999.376 35.62 999.163 34.94C998.95 34.26 998.843 33.5067 998.843 32.68C998.843 31.52 999.03 30.5333 999.403 29.72C999.79 28.8933 1000.34 28.26 1001.06 27.82C1001.8 27.38 1002.66 27.16 1003.66 27.16C1004.68 27.16 1005.53 27.3933 1006.22 27.86C1006.93 28.3133 1007.46 28.9533 1007.82 29.78C1008.18 30.6067 1008.36 31.5733 1008.36 32.68ZM1000.02 32.68C1000.02 33.5867 1000.15 34.3867 1000.4 35.08C1000.66 35.76 1001.05 36.2867 1001.58 36.66C1002.12 37.0333 1002.78 37.22 1003.58 37.22C1004.41 37.22 1005.09 37.0333 1005.62 36.66C1006.16 36.2733 1006.55 35.74 1006.8 35.06C1007.06 34.3667 1007.18 33.5733 1007.18 32.68C1007.18 31.7867 1007.06 31 1006.82 30.32C1006.58 29.64 1006.2 29.1067 1005.68 28.72C1005.16 28.3333 1004.48 28.14 1003.64 28.14C1002.43 28.14 1001.52 28.54 1000.92 29.34C1000.32 30.14 1000.02 31.2533 1000.02 32.68ZM1015.52 38.2C1014.48 38.2 1013.59 37.9867 1012.86 37.56C1012.14 37.12 1011.59 36.4933 1011.2 35.68C1010.83 34.8667 1010.64 33.8867 1010.64 32.74C1010.64 31.54 1010.85 30.5267 1011.28 29.7C1011.72 28.8733 1012.32 28.2467 1013.08 27.82C1013.84 27.38 1014.73 27.16 1015.76 27.16C1016.27 27.16 1016.74 27.2133 1017.18 27.32C1017.63 27.4133 1018.03 27.54 1018.38 27.7L1018.08 28.66C1017.72 28.5133 1017.33 28.4 1016.92 28.32C1016.51 28.2267 1016.11 28.18 1015.74 28.18C1014.89 28.18 1014.17 28.3667 1013.58 28.74C1013.01 29.1 1012.57 29.62 1012.26 30.3C1011.97 30.98 1011.82 31.7933 1011.82 32.74C1011.82 33.62 1011.95 34.4 1012.2 35.08C1012.47 35.7467 1012.87 36.2667 1013.42 36.64C1013.97 37.0133 1014.67 37.2 1015.52 37.2C1016.04 37.2 1016.53 37.1467 1016.98 37.04C1017.45 36.9333 1017.87 36.7933 1018.26 36.62V37.66C1017.91 37.8067 1017.51 37.9333 1017.06 38.04C1016.61 38.1467 1016.09 38.2 1015.52 38.2ZM1028.85 29.96C1028.85 30.6267 1028.67 31.1533 1028.31 31.54C1027.95 31.9267 1027.48 32.1933 1026.89 32.34V32.4C1027.59 32.5067 1028.15 32.7667 1028.59 33.18C1029.03 33.58 1029.25 34.1733 1029.25 34.96C1029.25 35.4267 1029.17 35.8467 1029.01 36.22C1028.85 36.5933 1028.61 36.9133 1028.29 37.18C1027.97 37.4467 1027.57 37.6533 1027.07 37.8C1026.58 37.9333 1025.99 38 1025.31 38H1020.77V27.36H1025.21C1026 27.36 1026.66 27.46 1027.19 27.66C1027.74 27.8467 1028.15 28.1333 1028.43 28.52C1028.71 28.9067 1028.85 29.3867 1028.85 29.96ZM1028.07 34.96C1028.07 34.2267 1027.82 33.7 1027.31 33.38C1026.82 33.06 1026.07 32.9 1025.07 32.9H1021.91V37.04H1025.15C1026.13 37.04 1026.85 36.8733 1027.33 36.54C1027.83 36.2067 1028.07 35.68 1028.07 34.96ZM1027.69 30.08C1027.69 29.52 1027.5 29.0933 1027.11 28.8C1026.73 28.4933 1026.07 28.34 1025.13 28.34H1021.91V31.92H1024.99C1025.91 31.92 1026.59 31.7667 1027.03 31.46C1027.47 31.1533 1027.69 30.6933 1027.69 30.08ZM1033.26 27.36V38H1032.14V27.36H1033.26ZM1032.7 23.42C1032.95 23.42 1033.15 23.5 1033.28 23.66C1033.41 23.8067 1033.48 24.0133 1033.48 24.28C1033.48 24.56 1033.41 24.78 1033.28 24.94C1033.15 25.0867 1032.95 25.16 1032.7 25.16C1032.46 25.16 1032.27 25.0867 1032.14 24.94C1032.01 24.78 1031.94 24.56 1031.94 24.28C1031.94 24.0133 1032.01 23.8067 1032.14 23.66C1032.27 23.5 1032.46 23.42 1032.7 23.42ZM1044.17 27.36V37.02H1045.63V41.62H1044.51V38H1036.53V41.62H1035.43V37.02H1036.17C1036.77 36.18 1037.27 35.2533 1037.67 34.24C1038.07 33.2267 1038.37 32.14 1038.59 30.98C1038.8 29.82 1038.91 28.6133 1038.93 27.36H1044.17ZM1039.97 28.3C1039.91 29.42 1039.78 30.5067 1039.57 31.56C1039.35 32.6 1039.07 33.58 1038.71 34.5C1038.35 35.42 1037.91 36.26 1037.39 37.02H1043.07V28.3H1039.97ZM1048.8 30.98C1048.8 31.8333 1049.01 32.4533 1049.42 32.84C1049.85 33.2267 1050.48 33.42 1051.3 33.42C1052.01 33.42 1052.65 33.3067 1053.22 33.08C1053.81 32.8533 1054.38 32.5533 1054.92 32.18V27.36H1056.04V38H1054.92V33.12C1054.34 33.52 1053.75 33.8333 1053.16 34.06C1052.59 34.2733 1051.9 34.38 1051.1 34.38C1049.98 34.38 1049.13 34.0933 1048.54 33.52C1047.96 32.9333 1047.66 32.1267 1047.66 31.1V27.36H1048.8V30.98ZM1063.58 27.16C1064.5 27.16 1065.26 27.3733 1065.86 27.8C1066.47 28.2133 1066.93 28.7867 1067.24 29.52C1067.56 30.2533 1067.72 31.1 1067.72 32.06V32.82H1060.12C1060.12 34.2467 1060.45 35.3333 1061.1 36.08C1061.77 36.8267 1062.71 37.2 1063.92 37.2C1064.59 37.2 1065.17 37.1467 1065.66 37.04C1066.15 36.9333 1066.69 36.7467 1067.28 36.48V37.52C1066.75 37.76 1066.22 37.9333 1065.7 38.04C1065.18 38.1467 1064.57 38.2 1063.88 38.2C1062.83 38.2 1061.93 37.98 1061.18 37.54C1060.45 37.1 1059.89 36.4733 1059.5 35.66C1059.13 34.8333 1058.94 33.8733 1058.94 32.78C1058.94 31.6867 1059.12 30.72 1059.48 29.88C1059.84 29.04 1060.37 28.38 1061.06 27.9C1061.75 27.4067 1062.59 27.16 1063.58 27.16ZM1063.58 28.12C1062.59 28.12 1061.8 28.4467 1061.2 29.1C1060.6 29.74 1060.25 30.6667 1060.14 31.88H1066.54C1066.54 31.1333 1066.43 30.48 1066.22 29.92C1066.01 29.36 1065.68 28.92 1065.24 28.6C1064.81 28.28 1064.26 28.12 1063.58 28.12ZM1071.74 27.36V31.98H1078.26V27.36H1079.4V38H1078.26V32.96H1071.74V38H1070.6V27.36H1071.74ZM1086.68 27.18C1087.88 27.18 1088.77 27.4733 1089.36 28.06C1089.95 28.6467 1090.24 29.58 1090.24 30.86V38H1089.38L1089.18 36.2H1089.12C1088.87 36.6 1088.57 36.9533 1088.24 37.26C1087.92 37.5533 1087.53 37.7867 1087.06 37.96C1086.61 38.12 1086.05 38.2 1085.38 38.2C1084.71 38.2 1084.13 38.0867 1083.64 37.86C1083.15 37.62 1082.77 37.28 1082.5 36.84C1082.23 36.4 1082.1 35.86 1082.1 35.22C1082.1 34.1667 1082.53 33.3667 1083.4 32.82C1084.27 32.26 1085.53 31.94 1087.18 31.86L1089.12 31.78V31.02C1089.12 29.9667 1088.91 29.2267 1088.48 28.8C1088.07 28.36 1087.45 28.14 1086.62 28.14C1086.07 28.14 1085.55 28.2133 1085.04 28.36C1084.55 28.4933 1084.05 28.6867 1083.54 28.94L1083.18 28.04C1083.67 27.7867 1084.22 27.58 1084.82 27.42C1085.42 27.26 1086.04 27.18 1086.68 27.18ZM1087.3 32.7C1085.95 32.7667 1084.95 33.0067 1084.28 33.42C1083.61 33.82 1083.28 34.4267 1083.28 35.24C1083.28 35.8933 1083.49 36.3933 1083.9 36.74C1084.31 37.0733 1084.87 37.24 1085.58 37.24C1086.71 37.24 1087.58 36.9267 1088.18 36.3C1088.79 35.6733 1089.11 34.7933 1089.12 33.66V32.62L1087.3 32.7ZM1097.37 27.36H1098.59L1101.11 33.98C1101.26 34.3667 1101.39 34.7267 1101.51 35.06C1101.63 35.3933 1101.74 35.7067 1101.83 36C1101.92 36.28 1102 36.54 1102.07 36.78H1102.13C1102.22 36.4733 1102.35 36.08 1102.51 35.6C1102.67 35.1067 1102.86 34.5733 1103.07 34L1105.55 27.36H1106.77L1101.97 39.9C1101.73 40.5133 1101.46 41.04 1101.17 41.48C1100.88 41.92 1100.53 42.2533 1100.13 42.48C1099.73 42.72 1099.25 42.84 1098.69 42.84C1098.44 42.84 1098.2 42.82 1097.99 42.78C1097.79 42.7533 1097.6 42.7133 1097.41 42.66V41.7C1097.58 41.74 1097.76 41.7733 1097.93 41.8C1098.12 41.84 1098.32 41.86 1098.55 41.86C1098.92 41.86 1099.25 41.78 1099.53 41.62C1099.81 41.4733 1100.06 41.24 1100.27 40.92C1100.48 40.6133 1100.68 40.2267 1100.85 39.76L1101.55 37.96L1097.37 27.36ZM1117.09 27.36V38H1115.95V28.36H1109.65V38H1108.51V27.36H1117.09ZM1125.38 27.16C1126.74 27.16 1127.8 27.62 1128.56 28.54C1129.33 29.46 1129.72 30.82 1129.72 32.62C1129.72 33.82 1129.54 34.84 1129.18 35.68C1128.82 36.5067 1128.3 37.1333 1127.64 37.56C1126.98 37.9867 1126.2 38.2 1125.28 38.2C1124.65 38.2 1124.1 38.1067 1123.64 37.92C1123.17 37.7333 1122.78 37.4867 1122.48 37.18C1122.17 36.8733 1121.93 36.5333 1121.76 36.16H1121.68C1121.7 36.4933 1121.72 36.86 1121.74 37.26C1121.75 37.6467 1121.76 38.0067 1121.76 38.34V42.72H1120.62V27.36H1121.56L1121.7 29.36H1121.76C1121.93 28.9733 1122.18 28.6133 1122.5 28.28C1122.82 27.9467 1123.21 27.68 1123.68 27.48C1124.16 27.2667 1124.72 27.16 1125.38 27.16ZM1125.22 28.14C1124.43 28.14 1123.78 28.3067 1123.28 28.64C1122.77 28.9733 1122.39 29.4667 1122.14 30.12C1121.88 30.76 1121.76 31.5533 1121.76 32.5V32.7C1121.76 33.7 1121.88 34.54 1122.12 35.22C1122.37 35.8867 1122.74 36.3867 1123.24 36.72C1123.74 37.0533 1124.38 37.22 1125.14 37.22C1125.88 37.22 1126.5 37.04 1127 36.68C1127.5 36.3067 1127.88 35.78 1128.14 35.1C1128.4 34.4067 1128.54 33.58 1128.54 32.62C1128.54 31.1667 1128.26 30.06 1127.72 29.3C1127.17 28.5267 1126.34 28.14 1125.22 28.14ZM1136.35 27.18C1137.55 27.18 1138.44 27.4733 1139.03 28.06C1139.61 28.6467 1139.91 29.58 1139.91 30.86V38H1139.05L1138.85 36.2H1138.79C1138.53 36.6 1138.24 36.9533 1137.91 37.26C1137.59 37.5533 1137.19 37.7867 1136.73 37.96C1136.27 38.12 1135.71 38.2 1135.05 38.2C1134.38 38.2 1133.8 38.0867 1133.31 37.86C1132.81 37.62 1132.43 37.28 1132.17 36.84C1131.9 36.4 1131.77 35.86 1131.77 35.22C1131.77 34.1667 1132.2 33.3667 1133.07 32.82C1133.93 32.26 1135.19 31.94 1136.85 31.86L1138.79 31.78V31.02C1138.79 29.9667 1138.57 29.2267 1138.15 28.8C1137.73 28.36 1137.11 28.14 1136.29 28.14C1135.74 28.14 1135.21 28.2133 1134.71 28.36C1134.21 28.4933 1133.71 28.6867 1133.21 28.94L1132.85 28.04C1133.34 27.7867 1133.89 27.58 1134.49 27.42C1135.09 27.26 1135.71 27.18 1136.35 27.18ZM1136.97 32.7C1135.62 32.7667 1134.61 33.0067 1133.95 33.42C1133.28 33.82 1132.95 34.4267 1132.95 35.24C1132.95 35.8933 1133.15 36.3933 1133.57 36.74C1133.98 37.0733 1134.54 37.24 1135.25 37.24C1136.38 37.24 1137.25 36.9267 1137.85 36.3C1138.46 35.6733 1138.77 34.7933 1138.79 33.66V32.62L1136.97 32.7ZM1151.39 29.96C1151.39 30.6267 1151.21 31.1533 1150.85 31.54C1150.49 31.9267 1150.02 32.1933 1149.43 32.34V32.4C1150.12 32.5067 1150.69 32.7667 1151.13 33.18C1151.57 33.58 1151.79 34.1733 1151.79 34.96C1151.79 35.4267 1151.71 35.8467 1151.55 36.22C1151.39 36.5933 1151.15 36.9133 1150.83 37.18C1150.51 37.4467 1150.1 37.6533 1149.61 37.8C1149.12 37.9333 1148.53 38 1147.85 38H1143.31V27.36H1147.75C1148.54 27.36 1149.2 27.46 1149.73 27.66C1150.28 27.8467 1150.69 28.1333 1150.97 28.52C1151.25 28.9067 1151.39 29.3867 1151.39 29.96ZM1150.61 34.96C1150.61 34.2267 1150.36 33.7 1149.85 33.38C1149.36 33.06 1148.61 32.9 1147.61 32.9H1144.45V37.04H1147.69C1148.66 37.04 1149.39 36.8733 1149.87 36.54C1150.36 36.2067 1150.61 35.68 1150.61 34.96ZM1150.23 30.08C1150.23 29.52 1150.04 29.0933 1149.65 28.8C1149.26 28.4933 1148.6 28.34 1147.67 28.34H1144.45V31.92H1147.53C1148.45 31.92 1149.13 31.7667 1149.57 31.46C1150.01 31.1533 1150.23 30.6933 1150.23 30.08ZM1162.18 38H1161.04V28.34H1157.44C1157.3 30.02 1157.15 31.4733 1156.98 32.7C1156.8 33.9267 1156.58 34.94 1156.3 35.74C1156.03 36.54 1155.69 37.1333 1155.28 37.52C1154.88 37.9067 1154.39 38.1 1153.82 38.1C1153.64 38.1 1153.49 38.0933 1153.36 38.08C1153.22 38.0667 1153.11 38.0467 1153.02 38.02V37.1C1153.1 37.1267 1153.18 37.1467 1153.28 37.16C1153.37 37.1733 1153.49 37.18 1153.64 37.18C1153.96 37.18 1154.24 37.0533 1154.5 36.8C1154.76 36.5467 1155 36.1667 1155.2 35.66C1155.4 35.1533 1155.57 34.5133 1155.72 33.74C1155.88 32.9533 1156.01 32.0333 1156.12 30.98C1156.24 29.9133 1156.34 28.7067 1156.44 27.36H1162.18V38ZM1166.81 27.36V38H1165.69V27.36H1166.81ZM1166.25 23.42C1166.51 23.42 1166.7 23.5 1166.83 23.66C1166.97 23.8067 1167.03 24.0133 1167.03 24.28C1167.03 24.56 1166.97 24.78 1166.83 24.94C1166.7 25.0867 1166.51 25.16 1166.25 25.16C1166.01 25.16 1165.83 25.0867 1165.69 24.94C1165.56 24.78 1165.49 24.56 1165.49 24.28C1165.49 24.0133 1165.56 23.8067 1165.69 23.66C1165.83 23.5 1166.01 23.42 1166.25 23.42ZM1171.48 27.36V31.98H1178V27.36H1179.14V38H1178V32.96H1171.48V38H1170.34V27.36H1171.48ZM1186.93 38.2C1185.89 38.2 1185 37.9867 1184.27 37.56C1183.55 37.12 1182.99 36.4933 1182.61 35.68C1182.23 34.8667 1182.05 33.8867 1182.05 32.74C1182.05 31.54 1182.26 30.5267 1182.69 29.7C1183.13 28.8733 1183.73 28.2467 1184.49 27.82C1185.25 27.38 1186.14 27.16 1187.17 27.16C1187.67 27.16 1188.15 27.2133 1188.59 27.32C1189.04 27.4133 1189.44 27.54 1189.79 27.7L1189.49 28.66C1189.13 28.5133 1188.74 28.4 1188.33 28.32C1187.91 28.2267 1187.52 28.18 1187.15 28.18C1186.29 28.18 1185.57 28.3667 1184.99 28.74C1184.41 29.1 1183.97 29.62 1183.67 30.3C1183.37 30.98 1183.23 31.7933 1183.23 32.74C1183.23 33.62 1183.35 34.4 1183.61 35.08C1183.87 35.7467 1184.28 36.2667 1184.83 36.64C1185.37 37.0133 1186.07 37.2 1186.93 37.2C1187.45 37.2 1187.93 37.1467 1188.39 37.04C1188.85 36.9333 1189.28 36.7933 1189.67 36.62V37.66C1189.32 37.8067 1188.92 37.9333 1188.47 38.04C1188.01 38.1467 1187.5 38.2 1186.93 38.2ZM1196.98 31.82C1197.83 31.82 1198.53 31.94 1199.08 32.18C1199.64 32.4067 1200.05 32.7467 1200.32 33.2C1200.6 33.64 1200.74 34.1733 1200.74 34.8C1200.74 35.4667 1200.59 36.04 1200.3 36.52C1200.02 37 1199.58 37.3667 1199 37.62C1198.42 37.8733 1197.69 38 1196.8 38H1192.18V27.36H1193.32V31.82H1196.98ZM1199.6 34.84C1199.6 34.1333 1199.36 33.62 1198.9 33.3C1198.43 32.9667 1197.74 32.8 1196.84 32.8H1193.32V37.04H1196.72C1197.68 37.04 1198.4 36.86 1198.88 36.5C1199.36 36.14 1199.6 35.5867 1199.6 34.84ZM1209.54 27.36H1210.84L1206.08 32.52L1211.14 38H1209.76L1204.8 32.62V38H1203.66V27.36H1204.8V32.54L1209.54 27.36ZM1216.88 27.18C1218.08 27.18 1218.97 27.4733 1219.56 28.06C1220.14 28.6467 1220.44 29.58 1220.44 30.86V38H1219.58L1219.38 36.2H1219.32C1219.06 36.6 1218.77 36.9533 1218.44 37.26C1218.12 37.5533 1217.72 37.7867 1217.26 37.96C1216.8 38.12 1216.24 38.2 1215.58 38.2C1214.91 38.2 1214.33 38.0867 1213.84 37.86C1213.34 37.62 1212.96 37.28 1212.7 36.84C1212.43 36.4 1212.3 35.86 1212.3 35.22C1212.3 34.1667 1212.73 33.3667 1213.6 32.82C1214.46 32.26 1215.72 31.94 1217.38 31.86L1219.32 31.78V31.02C1219.32 29.9667 1219.1 29.2267 1218.68 28.8C1218.26 28.36 1217.64 28.14 1216.82 28.14C1216.27 28.14 1215.74 28.2133 1215.24 28.36C1214.74 28.4933 1214.24 28.6867 1213.74 28.94L1213.38 28.04C1213.87 27.7867 1214.42 27.58 1215.02 27.42C1215.62 27.26 1216.24 27.18 1216.88 27.18ZM1217.5 32.7C1216.15 32.7667 1215.14 33.0067 1214.48 33.42C1213.81 33.82 1213.48 34.4267 1213.48 35.24C1213.48 35.8933 1213.68 36.3933 1214.1 36.74C1214.51 37.0733 1215.07 37.24 1215.78 37.24C1216.91 37.24 1217.78 36.9267 1218.38 36.3C1218.99 35.6733 1219.3 34.7933 1219.32 33.66V32.62L1217.5 32.7ZM1235.21 27.36H1236.51L1231.75 32.52L1236.81 38H1235.43L1230.47 32.62V38H1229.33V27.36H1230.47V32.54L1235.21 27.36ZM1247.29 32.68C1247.29 33.5067 1247.18 34.26 1246.97 34.94C1246.77 35.6067 1246.46 36.1867 1246.05 36.68C1245.65 37.16 1245.15 37.5333 1244.55 37.8C1243.95 38.0667 1243.26 38.2 1242.49 38.2C1241.76 38.2 1241.1 38.0733 1240.51 37.82C1239.94 37.5533 1239.44 37.18 1239.03 36.7C1238.62 36.2067 1238.3 35.62 1238.09 34.94C1237.88 34.26 1237.77 33.5067 1237.77 32.68C1237.77 31.52 1237.96 30.5333 1238.33 29.72C1238.72 28.8933 1239.27 28.26 1239.99 27.82C1240.72 27.38 1241.59 27.16 1242.59 27.16C1243.6 27.16 1244.46 27.3933 1245.15 27.86C1245.86 28.3133 1246.39 28.9533 1246.75 29.78C1247.11 30.6067 1247.29 31.5733 1247.29 32.68ZM1238.95 32.68C1238.95 33.5867 1239.08 34.3867 1239.33 35.08C1239.58 35.76 1239.98 36.2867 1240.51 36.66C1241.04 37.0333 1241.71 37.22 1242.51 37.22C1243.34 37.22 1244.02 37.0333 1244.55 36.66C1245.08 36.2733 1245.48 35.74 1245.73 35.06C1245.98 34.3667 1246.11 33.5733 1246.11 32.68C1246.11 31.7867 1245.99 31 1245.75 30.32C1245.51 29.64 1245.13 29.1067 1244.61 28.72C1244.09 28.3333 1243.41 28.14 1242.57 28.14C1241.36 28.14 1240.45 28.54 1239.85 29.34C1239.25 30.14 1238.95 31.2533 1238.95 32.68ZM1260.75 27.36V38H1259.69V30.52C1259.69 30.24 1259.69 29.9667 1259.71 29.7C1259.72 29.42 1259.73 29.1333 1259.75 28.84H1259.71L1255.93 38H1254.95L1251.21 28.82H1251.15C1251.17 29.1133 1251.19 29.4 1251.19 29.68C1251.19 29.96 1251.19 30.26 1251.19 30.58V38H1250.15V27.36H1251.69L1255.43 36.6L1259.21 27.36H1260.75ZM1267.73 27.18C1268.93 27.18 1269.83 27.4733 1270.41 28.06C1271 28.6467 1271.29 29.58 1271.29 30.86V38H1270.43L1270.23 36.2H1270.17C1269.92 36.6 1269.63 36.9533 1269.29 37.26C1268.97 37.5533 1268.58 37.7867 1268.11 37.96C1267.66 38.12 1267.1 38.2 1266.43 38.2C1265.77 38.2 1265.19 38.0867 1264.69 37.86C1264.2 37.62 1263.82 37.28 1263.55 36.84C1263.29 36.4 1263.15 35.86 1263.15 35.22C1263.15 34.1667 1263.59 33.3667 1264.45 32.82C1265.32 32.26 1266.58 31.94 1268.23 31.86L1270.17 31.78V31.02C1270.17 29.9667 1269.96 29.2267 1269.53 28.8C1269.12 28.36 1268.5 28.14 1267.67 28.14C1267.13 28.14 1266.6 28.2133 1266.09 28.36C1265.6 28.4933 1265.1 28.6867 1264.59 28.94L1264.23 28.04C1264.73 27.7867 1265.27 27.58 1265.87 27.42C1266.47 27.26 1267.09 27.18 1267.73 27.18ZM1268.35 32.7C1267.01 32.7667 1266 33.0067 1265.33 33.42C1264.67 33.82 1264.33 34.4267 1264.33 35.24C1264.33 35.8933 1264.54 36.3933 1264.95 36.74C1265.37 37.0733 1265.93 37.24 1266.63 37.24C1267.77 37.24 1268.63 36.9267 1269.23 36.3C1269.85 35.6733 1270.16 34.7933 1270.17 33.66V32.62L1268.35 32.7ZM1275.84 27.36V31.98H1282.36V27.36H1283.5V38H1282.36V32.96H1275.84V38H1274.7V27.36H1275.84ZM1294.4 27.36V37.02H1295.86V41.62H1294.74V38H1286.76V41.62H1285.66V37.02H1286.4C1287 36.18 1287.5 35.2533 1287.9 34.24C1288.3 33.2267 1288.61 32.14 1288.82 30.98C1289.04 29.82 1289.15 28.6133 1289.16 27.36H1294.4ZM1290.2 28.3C1290.15 29.42 1290.02 30.5067 1289.8 31.56C1289.59 32.6 1289.3 33.58 1288.94 34.5C1288.58 35.42 1288.14 36.26 1287.62 37.02H1293.3V28.3H1290.2ZM1301.84 27.18C1303.04 27.18 1303.93 27.4733 1304.52 28.06C1305.1 28.6467 1305.4 29.58 1305.4 30.86V38H1304.54L1304.34 36.2H1304.28C1304.02 36.6 1303.73 36.9533 1303.4 37.26C1303.08 37.5533 1302.68 37.7867 1302.22 37.96C1301.76 38.12 1301.2 38.2 1300.54 38.2C1299.87 38.2 1299.29 38.0867 1298.8 37.86C1298.3 37.62 1297.92 37.28 1297.66 36.84C1297.39 36.4 1297.26 35.86 1297.26 35.22C1297.26 34.1667 1297.69 33.3667 1298.56 32.82C1299.42 32.26 1300.68 31.94 1302.34 31.86L1304.28 31.78V31.02C1304.28 29.9667 1304.06 29.2267 1303.64 28.8C1303.22 28.36 1302.6 28.14 1301.78 28.14C1301.23 28.14 1300.7 28.2133 1300.2 28.36C1299.7 28.4933 1299.2 28.6867 1298.7 28.94L1298.34 28.04C1298.83 27.7867 1299.38 27.58 1299.98 27.42C1300.58 27.26 1301.2 27.18 1301.84 27.18ZM1302.46 32.7C1301.11 32.7667 1300.1 33.0067 1299.44 33.42C1298.77 33.82 1298.44 34.4267 1298.44 35.24C1298.44 35.8933 1298.64 36.3933 1299.06 36.74C1299.47 37.0733 1300.03 37.24 1300.74 37.24C1301.87 37.24 1302.74 36.9267 1303.34 36.3C1303.95 35.6733 1304.26 34.7933 1304.28 33.66V32.62L1302.46 32.7Z" fill="#FAF4EA"/>
</svg>
